<svg width="357" height="49" viewBox="0 0 357 49" fill="none" xmlns="http://www.w3.org/2000/svg">
<path d="M104.036 14.15V35H100.616V20.72L94.2557 35H91.8857L85.4957 20.72V35H82.0757V14.15H85.7657L93.0857 30.5L100.376 14.15H104.036ZM107.391 26.66C107.391 25 107.731 23.53 108.411 22.25C109.111 20.97 110.051 19.98 111.231 19.28C112.431 18.56 113.751 18.2 115.191 18.2C116.491 18.2 117.621 18.46 118.581 18.98C119.561 19.48 120.341 20.11 120.921 20.87V18.47H124.371V35H120.921V32.54C120.341 33.32 119.551 33.97 118.551 34.49C117.551 35.01 116.411 35.27 115.131 35.27C113.711 35.27 112.411 34.91 111.231 34.19C110.051 33.45 109.111 32.43 108.411 31.13C107.731 29.81 107.391 28.32 107.391 26.66ZM120.921 26.72C120.921 25.58 120.681 24.59 120.201 23.75C119.741 22.91 119.131 22.27 118.371 21.83C117.611 21.39 116.791 21.17 115.911 21.17C115.031 21.17 114.211 21.39 113.451 21.83C112.691 22.25 112.071 22.88 111.591 23.72C111.131 24.54 110.901 25.52 110.901 26.66C110.901 27.8 111.131 28.8 111.591 29.66C112.071 30.52 112.691 31.18 113.451 31.64C114.231 32.08 115.051 32.3 115.911 32.3C116.791 32.3 117.611 32.08 118.371 31.64C119.131 31.2 119.741 30.56 120.201 29.72C120.681 28.86 120.921 27.86 120.921 26.72ZM132.283 20.87C132.783 20.03 133.443 19.38 134.263 18.92C135.103 18.44 136.093 18.2 137.233 18.2V21.74H136.363C135.023 21.74 134.003 22.08 133.303 22.76C132.623 23.44 132.283 24.62 132.283 26.3V35H128.863V18.47H132.283V20.87ZM148.926 18.2C150.186 18.2 151.306 18.47 152.286 19.01C153.286 19.55 154.066 20.35 154.626 21.41C155.206 22.47 155.496 23.75 155.496 25.25V35H152.106V25.76C152.106 24.28 151.736 23.15 150.996 22.37C150.256 21.57 149.246 21.17 147.966 21.17C146.686 21.17 145.666 21.57 144.906 22.37C144.166 23.15 143.796 24.28 143.796 25.76V35H140.376V12.8H143.796V20.39C144.376 19.69 145.106 19.15 145.986 18.77C146.886 18.39 147.866 18.2 148.926 18.2ZM158.719 26.66C158.719 25 159.059 23.53 159.739 22.25C160.439 20.97 161.379 19.98 162.559 19.28C163.759 18.56 165.079 18.2 166.519 18.2C167.819 18.2 168.949 18.46 169.909 18.98C170.889 19.48 171.669 20.11 172.249 20.87V18.47H175.699V35H172.249V32.54C171.669 33.32 170.879 33.97 169.879 34.49C168.879 35.01 167.739 35.27 166.459 35.27C165.039 35.27 163.739 34.91 162.559 34.19C161.379 33.45 160.439 32.43 159.739 31.13C159.059 29.81 158.719 28.32 158.719 26.66ZM172.249 26.72C172.249 25.58 172.009 24.59 171.529 23.75C171.069 22.91 170.459 22.27 169.699 21.83C168.939 21.39 168.119 21.17 167.239 21.17C166.359 21.17 165.539 21.39 164.779 21.83C164.019 22.25 163.399 22.88 162.919 23.72C162.459 24.54 162.229 25.52 162.229 26.66C162.229 27.8 162.459 28.8 162.919 29.66C163.399 30.52 164.019 31.18 164.779 31.64C165.559 32.08 166.379 32.3 167.239 32.3C168.119 32.3 168.939 32.08 169.699 31.64C170.459 31.2 171.069 30.56 171.529 29.72C172.009 28.86 172.249 27.86 172.249 26.72ZM183.611 20.93C184.191 20.13 184.981 19.48 185.981 18.98C187.001 18.46 188.131 18.2 189.371 18.2C190.831 18.2 192.151 18.55 193.331 19.25C194.511 19.95 195.441 20.95 196.121 22.25C196.801 23.53 197.141 25 197.141 26.66C197.141 28.32 196.801 29.81 196.121 31.13C195.441 32.43 194.501 33.45 193.301 34.19C192.121 34.91 190.811 35.27 189.371 35.27C188.091 35.27 186.951 35.02 185.951 34.52C184.971 34.02 184.191 33.38 183.611 32.6V35H180.191V12.8H183.611V20.93ZM193.661 26.66C193.661 25.52 193.421 24.54 192.941 23.72C192.481 22.88 191.861 22.25 191.081 21.83C190.321 21.39 189.501 21.17 188.621 21.17C187.761 21.17 186.941 21.39 186.161 21.83C185.401 22.27 184.781 22.91 184.301 23.75C183.841 24.59 183.611 25.58 183.611 26.72C183.611 27.86 183.841 28.86 184.301 29.72C184.781 30.56 185.401 31.2 186.161 31.64C186.941 32.08 187.761 32.3 188.621 32.3C189.501 32.3 190.321 32.08 191.081 31.64C191.861 31.18 192.481 30.52 192.941 29.66C193.421 28.8 193.661 27.8 193.661 26.66ZM199.383 26.66C199.383 25 199.723 23.53 200.403 22.25C201.103 20.97 202.043 19.98 203.223 19.28C204.423 18.56 205.743 18.2 207.183 18.2C208.483 18.2 209.613 18.46 210.573 18.98C211.553 19.48 212.333 20.11 212.913 20.87V18.47H216.363V35H212.913V32.54C212.333 33.32 211.543 33.97 210.543 34.49C209.543 35.01 208.403 35.27 207.123 35.27C205.703 35.27 204.403 34.91 203.223 34.19C202.043 33.45 201.103 32.43 200.403 31.13C199.723 29.81 199.383 28.32 199.383 26.66ZM212.913 26.72C212.913 25.58 212.673 24.59 212.193 23.75C211.733 22.91 211.123 22.27 210.363 21.83C209.603 21.39 208.783 21.17 207.903 21.17C207.023 21.17 206.203 21.39 205.443 21.83C204.683 22.25 204.063 22.88 203.583 23.72C203.123 24.54 202.893 25.52 202.893 26.66C202.893 27.8 203.123 28.8 203.583 29.66C204.063 30.52 204.683 31.18 205.443 31.64C206.223 32.08 207.043 32.3 207.903 32.3C208.783 32.3 209.603 32.08 210.363 31.64C211.123 31.2 211.733 30.56 212.193 29.72C212.673 28.86 212.913 27.86 212.913 26.72Z" fill="#202020"/>
<path d="M237.449 31.45H230.174L228.924 35H225.949L232.174 17.6H235.474L241.699 35H238.699L237.449 31.45ZM236.649 29.125L233.824 21.05L230.974 29.125H236.649ZM249.956 21C251.022 21 251.964 21.2167 252.781 21.65C253.614 22.0667 254.264 22.5917 254.731 23.225V21.225H257.606V35.225C257.606 36.4917 257.339 37.6167 256.806 38.6C256.272 39.6 255.497 40.3833 254.481 40.95C253.481 41.5167 252.281 41.8 250.881 41.8C249.014 41.8 247.464 41.3583 246.231 40.475C244.997 39.6083 244.297 38.425 244.131 36.925H246.956C247.172 37.6417 247.631 38.2167 248.331 38.65C249.047 39.1 249.897 39.325 250.881 39.325C252.031 39.325 252.956 38.975 253.656 38.275C254.372 37.575 254.731 36.5583 254.731 35.225V32.925C254.247 33.575 253.589 34.125 252.756 34.575C251.939 35.0083 251.006 35.225 249.956 35.225C248.756 35.225 247.656 34.925 246.656 34.325C245.672 33.7083 244.889 32.8583 244.306 31.775C243.739 30.675 243.456 29.4333 243.456 28.05C243.456 26.6667 243.739 25.4417 244.306 24.375C244.889 23.3083 245.672 22.4833 246.656 21.9C247.656 21.3 248.756 21 249.956 21ZM254.731 28.1C254.731 27.15 254.531 26.325 254.131 25.625C253.747 24.925 253.239 24.3917 252.606 24.025C251.972 23.6583 251.289 23.475 250.556 23.475C249.822 23.475 249.139 23.6583 248.506 24.025C247.872 24.375 247.356 24.9 246.956 25.6C246.572 26.2833 246.381 27.1 246.381 28.05C246.381 29 246.572 29.8333 246.956 30.55C247.356 31.2667 247.872 31.8167 248.506 32.2C249.156 32.5667 249.839 32.75 250.556 32.75C251.289 32.75 251.972 32.5667 252.606 32.2C253.239 31.8333 253.747 31.3 254.131 30.6C254.531 29.8833 254.731 29.05 254.731 28.1ZM264.199 23.225C264.616 22.525 265.166 21.9833 265.849 21.6C266.549 21.2 267.374 21 268.324 21V23.95H267.599C266.482 23.95 265.632 24.2333 265.049 24.8C264.482 25.3667 264.199 26.35 264.199 27.75V35H261.349V21.225H264.199V23.225ZM276.919 35.225C275.619 35.225 274.444 34.9333 273.394 34.35C272.344 33.75 271.519 32.9167 270.919 31.85C270.319 30.7667 270.019 29.5167 270.019 28.1C270.019 26.7 270.327 25.4583 270.944 24.375C271.561 23.2917 272.402 22.4583 273.469 21.875C274.536 21.2917 275.727 21 277.044 21C278.361 21 279.552 21.2917 280.619 21.875C281.686 22.4583 282.527 23.2917 283.144 24.375C283.761 25.4583 284.069 26.7 284.069 28.1C284.069 29.5 283.752 30.7417 283.119 31.825C282.486 32.9083 281.619 33.75 280.519 34.35C279.436 34.9333 278.236 35.225 276.919 35.225ZM276.919 32.75C277.652 32.75 278.336 32.575 278.969 32.225C279.619 31.875 280.144 31.35 280.544 30.65C280.944 29.95 281.144 29.1 281.144 28.1C281.144 27.1 280.952 26.2583 280.569 25.575C280.186 24.875 279.677 24.35 279.044 24C278.411 23.65 277.727 23.475 276.994 23.475C276.261 23.475 275.577 23.65 274.944 24C274.327 24.35 273.836 24.875 273.469 25.575C273.102 26.2583 272.919 27.1 272.919 28.1C272.919 29.5833 273.294 30.7333 274.044 31.55C274.811 32.35 275.769 32.75 276.919 32.75Z" fill="#059E50"/>
<path d="M38.7041 7.72583C49.4583 -0.0527625 65.8564 2.68872 65.8564 2.68872C65.8666 2.79846 67.0616 16.07 54.0635 25.8206C48.1848 30.2304 41.8575 31.758 36.6787 32.1077C36.7357 30.4036 37.0311 25.7016 38.5762 22.9397C40.4884 19.5214 42.9414 16.1066 48.3594 13.8772C48.5262 13.8085 48.6914 13.7351 48.8574 13.6643C48.7857 13.7157 48.7128 13.7664 48.6406 13.8186C42.9178 17.9569 42.2812 25.4124 42.2812 25.4124C42.2812 25.4124 48.0048 23.6915 53.0918 18.8079C57.4596 14.6145 58.435 9.66587 58.624 8.35083C58.7474 8.26917 58.8145 8.22778 58.8145 8.22778C58.8145 8.22778 58.7689 8.20814 58.6465 8.18286C58.6595 8.07785 58.6667 8.02068 58.667 8.01684C58.667 8.01684 58.5664 8.06005 58.373 8.14184C57.7097 8.06503 56.1514 8.02996 52.7588 8.52466C46.6401 9.41686 43.4297 11.072 38.1709 17.1428C32.2489 23.9795 32.7529 32.7483 32.7529 32.7483H32.7734C32.8367 33.9015 32.9736 34.991 33.2207 35.9036C34.3252 39.9815 36.3173 45.055 36.8223 46.3196C36.8788 46.4619 36.7724 46.6154 36.6191 46.6155H32.6973C32.5221 46.6154 32.3644 46.509 32.2979 46.3469L29.4287 39.3469C25.3674 39.5251 17.786 38.7836 10.5166 32.2893C0.70316 23.522 0.0439315 14.127 0 12.7483C1.58197 12.6495 6.76478 12.5609 11.2812 15.136C16.6859 18.2175 18.117 19.4854 20.1836 22.6194C20.5768 23.2156 20.9062 23.9413 21.1826 24.7249C20.3467 23.7045 19.1571 22.6823 17.4814 21.7356C9.72234 17.352 7.96496 18.0435 7.95117 18.0491C7.96201 18.109 8.92774 23.3743 14.46 27.6057C19.7512 31.6527 22.3115 32.1149 22.5498 32.1506C22.5625 32.3383 22.568 32.4448 22.5684 32.4514L26.542 33.4788C26.5448 33.4292 27.0284 24.8015 21.1377 18.0706C15.904 12.0906 8.13836 10.3017 8.10156 10.2932C8.10156 10.2932 7.84531 10.3022 7.44043 10.3293C11.6192 9.82632 17.1659 10.3101 23.0439 14.0432C25.7227 15.7445 27.6789 17.8955 29.0996 20.218C31.0666 15.8377 34.1011 11.0553 38.7041 7.72583Z" fill="#059E50"/>
<path d="M25.3968 11.6539C26.7531 12.339 29.0254 13.8737 29.0254 13.8737C29.0254 13.8737 29.8737 12.9462 31.4444 11.099C32.0492 10.3877 35.6777 7.76929 35.6777 7.76929C35.6777 7.76929 33.2343 10.6788 32.1227 12.2088C30.9132 13.8737 29.0989 17.7583 29.0989 17.7583C29.0989 17.7583 26.5497 13.839 24.792 12.7638C21.1635 10.544 18.1396 9.03546 18.1396 9.03546C18.1396 9.03546 23.509 10.7003 25.3968 11.6539Z" fill="#F6B923"/>
</svg>
